<svg width="23" height="23" viewBox="0 0 23 23" fill="none" xmlns="http://www.w3.org/2000/svg">
<path d="M18.667 21.305C19.0648 21.305 19.4463 21.147 19.7277 20.8657C20.009 20.5843 20.167 20.2028 20.167 19.805C20.167 19.4072 20.009 19.0256 19.7277 18.7443C19.4463 18.463 19.0648 18.305 18.667 18.305C18.2692 18.305 17.8876 18.463 17.6063 18.7443C17.325 19.0256 17.167 19.4072 17.167 19.805C17.167 20.2028 17.325 20.5843 17.6063 20.8657C17.8876 21.147 18.2692 21.305 18.667 21.305ZM8.66699 21.305C9.06482 21.305 9.44635 21.147 9.72765 20.8657C10.009 20.5843 10.167 20.2028 10.167 19.805C10.167 19.4072 10.009 19.0256 9.72765 18.7443C9.44635 18.463 9.06482 18.305 8.66699 18.305C8.26917 18.305 7.88764 18.463 7.60633 18.7443C7.32503 19.0256 7.16699 19.4072 7.16699 19.805C7.16699 20.2028 7.32503 20.5843 7.60633 20.8657C7.88764 21.147 8.26917 21.305 8.66699 21.305Z" fill="#3D3D3D" stroke="#3D3D3D" stroke-width="2" stroke-linecap="round" stroke-linejoin="round"/>
<path d="M19.167 14.305H4.39699C2.61299 14.305 1.66699 15.086 1.66699 16.305C1.66699 17.524 2.61299 18.305 4.39699 18.305H18.667M4.16699 3.30499H21.167L19.167 14.305H6.16699L4.16699 3.30499ZM4.16699 3.30499C3.99999 2.63799 3.16699 1.30499 1.16699 1.30499L4.16699 3.30499Z" stroke="#3D3D3D" stroke-width="2" stroke-linecap="round" stroke-linejoin="round"/>
</svg>
